<svg xmlns="http://www.w3.org/2000/svg" width="25" height="24" fill="none"><g clip-path="url(#a)"><path fill="#000" fill-rule="evenodd" d="M24.595 0H0v12.784h1.32V1.29h21.954v4.238h-2.19v.01h-.016c-.058.114-.182.373-.37.774-.188.402-.42.89-.697 1.463-.276.574-.585 1.208-.926 1.902a790.01 790.01 0 0 0-1.032 2.109 160.12 160.12 0 0 1-1.95 3.856L10.715 5.536H9.092l7.002 12.909 6.007-11.66h2.492v-.014h.002V0ZM0 17.196h.006v-.014H8.47L2.424 5.537H4.1l5.75 11.48-.723 1.429-.011-.021v.015H1.32v4.271h21.953V11.184h1.32V24H0v-6.804ZM33.695 24V0h1.357v24h-1.357Z" clip-rule="evenodd"/></g><defs><clipPath id="a"><path fill="#fff" d="M0 0h25v24H0z"/></clipPath></defs></svg>